<?xml version="1.0" encoding="utf-8"?>
<!-- Generator: Adobe Illustrator 18.1.1, SVG Export Plug-In . SVG Version: 6.00 Build 0)  -->
<svg version="1.2" baseProfile="tiny" xmlns="http://www.w3.org/2000/svg" xmlns:xlink="http://www.w3.org/1999/xlink" x="0px"
	 y="0px" viewBox="0 0 203.6 164" xml:space="preserve">

<g id="Layer_2">
	<path fill="#FFDD57" d="M101.8,16.9L0,65.8l101.8,48.9l101.8-48.9L101.8,16.9z M87.3,80.3v-29h29v29H87.3z"/>
</g>
    

<g id="Layer_2_copy">
	<g>
		<polygon fill="#FFDD57" points="19.8,0 19.8,49.3 101.8,10 183.8,49.3 183.8,0 		"/>
		<path fill="#FFDD57" d="M143.7,146.9c0.5,0,0.9,0,1.3-0.1c0.4-0.1,0.8-0.2,1-0.4c0.2-0.1,0.3-0.3,0.5-0.7s0.3-0.8,0.4-1.3
			c0.1-0.5,0.2-1.1,0.2-1.8c0-0.7,0.1-1.4,0.1-2.1c0-2.2-0.3-3.8-0.8-4.8c-0.5-1.1-1.4-1.6-2.6-1.6c-0.5,0-0.9,0-1.3,0.1
			c-0.4,0.1-0.8,0.2-1.1,0.4c-0.2,0.1-0.3,0.3-0.5,0.7c-0.1,0.3-0.2,0.8-0.3,1.3c-0.1,0.5-0.1,1.1-0.2,1.8c0,0.7-0.1,1.3-0.1,2.1
			c0,2.2,0.3,3.8,0.8,4.9C141.6,146.4,142.5,146.9,143.7,146.9z"/>
		<path fill="#FFDD57" d="M19.8,82.3V164h164V82.3l-82,39.4L19.8,82.3z M49,134.1c-0.4,1-1,1.9-1.8,2.7s-1.8,1.4-3,1.8
			s-2.7,0.7-4.4,0.7h-0.2l-0.3-1.9l0.7-0.1c0.6-0.1,1.2-0.3,1.8-0.6c0.6-0.2,1.1-0.6,1.5-1c0.4-0.4,0.7-1,1-1.8
			c0.2-0.7,0.4-1.7,0.4-2.8c0-1.7-0.4-2.9-1.1-3.7c-0.8-0.8-1.8-1.2-3-1.2c-0.3,0-0.6,0-0.9,0c-0.3,0-0.7,0.1-1,0.1v22.7h-4.9v-25.1
			c0.5,0,1.1-0.1,1.7-0.1c0.6,0,1.2-0.1,1.9-0.1c0.6,0,1.3,0,1.9-0.1c0.6,0,1.3,0,1.9,0c1.5,0,2.8,0.2,3.8,0.5
			c1.1,0.3,2,0.8,2.7,1.4c0.7,0.6,1.2,1.4,1.6,2.3c0.3,0.9,0.5,1.9,0.5,3C49.6,131.9,49.4,133,49,134.1z M68.9,148.9h-4.3l-0.4-2
			h-0.1c-0.3,0.2-0.7,0.5-1.2,0.7c-0.5,0.3-1,0.5-1.5,0.8c-0.5,0.2-1.1,0.5-1.7,0.6c-0.6,0.2-1.2,0.2-1.7,0.2
			c-0.6,0-1.2-0.1-1.8-0.3c-0.6-0.2-1-0.5-1.5-0.9c-0.4-0.4-0.8-0.9-1-1.6s-0.4-1.4-0.4-2.2v-12.3h4.8v11.3c0,1,0.2,1.7,0.5,2.2
			c0.3,0.5,0.9,0.7,1.6,0.7c0.3,0,0.6,0,0.9-0.1s0.7-0.2,1-0.3s0.7-0.3,1-0.5c0.3-0.2,0.6-0.4,0.9-0.6v-12.8h4.8V148.9z M89.8,148.9
			H85v-11.3c0-1-0.2-1.7-0.5-2.2c-0.3-0.5-0.9-0.7-1.6-0.7c-0.3,0-0.6,0-0.9,0.1c-0.3,0.1-0.7,0.2-1,0.3c-0.3,0.1-0.7,0.3-1,0.5
			c-0.3,0.2-0.6,0.4-0.9,0.6v12.8h-4.8v-16.8h4.3l0.4,2H79c0.3-0.2,0.7-0.5,1.2-0.7c0.5-0.3,1-0.5,1.5-0.8c0.5-0.2,1.1-0.4,1.7-0.6
			c0.6-0.2,1.2-0.2,1.7-0.2c0.6,0,1.2,0.1,1.8,0.3c0.6,0.2,1,0.5,1.5,0.9c0.4,0.4,0.8,0.9,1,1.5c0.2,0.6,0.4,1.3,0.4,2.2V148.9z
			 M159.7,157.2c0.5,0.5,1.3,0.7,2.3,0.7c0.5,0,0.9,0,1.4-0.1s0.9-0.1,1.4-0.2c0.4-0.1,0.8-0.2,1.2-0.3c0.4-0.1,0.7-0.3,0.9-0.4
			c0.4-0.2,0.6-0.5,0.7-1c0.1-0.4,0.2-1,0.2-1.6c0-1.2-1.3-1.9-3.8-1.9l-2.7,0c-1.9,0-3.3-0.3-4.1-0.8c-0.9-0.5-1.3-1.5-1.3-2.7
			c0-0.4,0.1-0.8,0.3-1.3c0.2-0.4,0.4-0.8,0.7-1.2c0.3-0.4,0.6-0.7,0.9-1.1c0.3-0.3,0.7-0.6,0.9-0.9c-0.5-0.2-0.9-0.5-1.4-0.9
			c-0.4-0.4-0.8-0.8-1.1-1.3s-0.6-1-0.8-1.7c-0.2-0.6-0.3-1.3-0.3-2c0-1.1,0.2-2,0.6-2.9c0.4-0.8,0.9-1.5,1.5-2.1
			c0.7-0.6,1.4-1,2.3-1.3c0.9-0.3,1.9-0.5,2.9-0.5c0.9,0,1.6,0,2.3,0.1c0.7,0.1,1.3,0.2,2,0.4c0.9,0,1.8-0.1,2.7-0.2
			c1-0.1,1.8-0.2,2.6-0.4l-0.4,2.2c-0.3,0.1-0.8,0.2-1.4,0.3c-0.6,0.1-1.1,0.1-1.5,0.1c0.2,0.4,0.4,0.9,0.7,1.5
			c0.2,0.7,0.4,1.5,0.4,2.6c0,1.1-0.2,2-0.5,2.8c-0.4,0.8-0.9,1.5-1.5,2.1c-0.6,0.6-1.4,1-2.3,1.3c-0.9,0.3-1.9,0.4-2.9,0.4
			c-0.2,0-0.4,0-0.6,0c-0.2,0-0.4,0-0.7,0c-0.2,0-0.4,0-0.6-0.1s-0.4-0.1-0.5-0.1c-0.1,0.2-0.2,0.5-0.4,0.8c-0.1,0.3-0.2,0.7-0.2,1
			c0,0.4,0.2,0.7,0.6,0.8c0.4,0.1,1.1,0.2,2,0.2h3.8c1.1,0,2.1,0.1,2.9,0.3c0.8,0.2,1.4,0.5,1.9,0.9c0.5,0.4,0.8,0.9,1,1.5
			c0.2,0.6,0.3,1.3,0.3,2.1c0,1-0.3,2-0.8,3c-0.6,1-1.3,1.9-2.3,2.7c-1,0.8-2.2,1.4-3.6,1.9s-2.9,0.7-4.5,0.7
			c-1.1,0-2.1-0.1-2.8-0.3c-0.8-0.2-1.4-0.5-1.9-0.8c-0.5-0.3-0.8-0.7-1-1.2c-0.2-0.4-0.3-0.9-0.3-1.4c0-0.9,0.3-1.6,0.9-2.2
			c0.6-0.6,1.3-1.1,2.3-1.7l1.1,0.3c-0.1,0.4-0.2,0.7-0.2,1c0,0.3-0.1,0.6-0.1,1C158.9,156.2,159.2,156.8,159.7,157.2z M135.8,136.9
			c0.4-1.1,0.9-2,1.6-2.8c0.7-0.8,1.6-1.3,2.7-1.8c1.1-0.4,2.3-0.6,3.7-0.6c2.8,0,4.9,0.8,6.3,2.3c1.4,1.5,2.1,3.7,2.1,6.5
			c0,1.4-0.2,2.6-0.5,3.7c-0.4,1.1-0.9,2-1.6,2.8c-0.7,0.8-1.6,1.3-2.7,1.8c-1.1,0.4-2.3,0.6-3.7,0.6c-2.7,0-4.8-0.7-6.3-2.2
			c-1.4-1.5-2.2-3.7-2.2-6.5C135.3,139.2,135.5,138,135.8,136.9z M108.6,130.9c0.5-1.6,1.2-2.9,2.1-4c1-1.1,2.2-2,3.7-2.6
			c1.5-0.6,3.2-0.9,5.3-0.9s3.8,0.3,5.3,0.9c1.5,0.6,2.8,1.4,3.8,2.6c1,1.1,1.8,2.5,2.3,4c0.5,1.6,0.8,3.3,0.8,5.3
			c0,2-0.3,3.8-0.8,5.4c-0.5,1.6-1.3,3-2.3,4.1c-1,1.1-2.3,2-3.8,2.6c-1.5,0.6-3.3,0.9-5.3,0.9c-2.1,0-3.8-0.3-5.3-0.9
			s-2.7-1.5-3.6-2.6c-0.9-1.1-1.6-2.5-2.1-4.1c-0.4-1.6-0.7-3.4-0.7-5.4S108.1,132.5,108.6,130.9z M100.3,145.4
			c0.2,0.4,0.7,0.6,1.4,0.6c0.2,0,0.4,0,0.7,0c0.3,0,0.6,0,1-0.1c0.3,0,0.7-0.1,1-0.1c0.3,0,0.6-0.1,0.8-0.1v1.4
			c-0.4,0.3-0.9,0.5-1.4,0.8c-0.5,0.3-1.1,0.5-1.7,0.7c-0.6,0.2-1.2,0.4-1.8,0.5c-0.6,0.1-1.2,0.2-1.7,0.2c-0.4,0-0.8,0-1.2-0.1
			c-0.4-0.1-0.8-0.2-1.1-0.5c-0.3-0.2-0.6-0.6-0.8-1c-0.2-0.4-0.3-1-0.3-1.7v-11.6l-1.8-0.6v-1l5.2-3.7h1.3l0.1,3h5.1l-0.2,1.9
			c-0.4,0.1-0.9,0.1-1.4,0.2c-0.6,0.1-1.1,0.1-1.6,0.1c-0.6,0.1-1.2,0.1-1.9,0.2v9.5C100,144.5,100.1,145,100.3,145.4z"/>
		<path fill="#FFDD57" d="M114.4,143.6c0.5,0.9,1.2,1.6,2,2.1c0.8,0.5,1.9,0.7,3.2,0.7c1.3,0,2.4-0.1,3.2-0.4c0.8-0.2,1.5-0.6,2.1-1
			c0.3-0.2,0.5-0.5,0.7-1.1c0.2-0.5,0.4-1.2,0.5-2c0.1-0.8,0.2-1.7,0.3-2.7c0.1-1,0.1-2,0.1-3c0-1.5-0.1-2.9-0.4-4.1
			c-0.3-1.2-0.7-2.3-1.2-3.1c-0.6-0.8-1.3-1.5-2.2-1.9c-0.9-0.4-1.9-0.7-3.1-0.7c-1.1,0-2,0.1-2.9,0.3c-0.9,0.2-1.6,0.6-2.2,1
			c-0.5,0.4-0.9,1.3-1.2,2.8c-0.2,1.4-0.4,3.3-0.4,5.8c0,1.5,0.1,2.9,0.3,4.1C113.5,141.6,113.9,142.7,114.4,143.6z"/>
		<path fill="#FFDD57" d="M160.6,141.5c0.2,0.4,0.5,0.7,0.8,0.9c0.3,0.2,0.7,0.3,1.2,0.3c0.4,0,0.8,0,1.1-0.1
			c0.3-0.1,0.6-0.2,0.8-0.3c0.2-0.1,0.4-0.6,0.6-1.3c0.2-0.7,0.2-1.6,0.2-2.7c0-0.6-0.1-1.2-0.2-1.7c-0.1-0.5-0.3-1-0.5-1.4
			c-0.2-0.4-0.5-0.7-0.9-0.9c-0.3-0.2-0.7-0.3-1.2-0.3c-0.4,0-0.7,0-1,0.1c-0.3,0.1-0.5,0.2-0.8,0.3c-0.3,0.2-0.5,0.6-0.6,1.3
			c-0.1,0.7-0.2,1.6-0.2,2.7c0,0.6,0.1,1.1,0.2,1.7C160.2,140.6,160.4,141.1,160.6,141.5z"/>
		
	</g>
</g>
</svg>
