<?xml version="1.0" encoding="utf-8"?>
<!-- Generator: Adobe Illustrator 18.1.1, SVG Export Plug-In . SVG Version: 6.00 Build 0)  -->
<svg version="1.2" baseProfile="tiny" xmlns="http://www.w3.org/2000/svg" xmlns:xlink="http://www.w3.org/1999/xlink" x="0px"
	 y="0px" viewBox="0 0 203.6 164" xml:space="preserve">
<g id="Layer_1" display="none">
	<rect x="84.7" y="479" display="inline" fill="#FBE64F" width="164" height="102.6"/>
	<rect x="26.2" y="12.6" display="inline" fill="#FBE64F" width="164" height="164"/>
	<g display="inline">
		<polygon fill="#FBE64F" points="-0.7,78.4 108.2,26.1 217.1,78.4 108.2,130.7 		"/>
		<path fill="#FFFFFF" d="M108.2,29.5L210,78.4l-101.8,48.9L6.4,78.4L108.2,29.5 M108.2,22.7l-7.1,3.4L-0.7,75l-7.1,3.4l7.1,3.4
			l101.8,48.9l7.1,3.4l7.1-3.4l101.8-48.9l7.1-3.4l-7.1-3.4L115.2,26.1L108.2,22.7L108.2,22.7z"/>
	</g>
	<polygon display="inline" fill="#FBE64F" points="6.1,78.4 108,29.5 209.8,78.4 108,127.3 	"/>
	<rect x="93.7" y="63.9" display="inline" fill="#FFFFFF" width="29" height="29"/>
	<rect x="26.2" y="132.9" display="inline" fill="none" width="164" height="43"/>
	<text transform="matrix(1 0 0 1 37.1234 161.5157)" display="inline" fill="#FFFFFF" font-family="'MoolBoran'" font-size="56">PuntOog</text>
</g>
<g id="Layer_2">
	<path fill="#FBE64F" d="M101.8,16.9L0,65.8l101.8,48.9l101.8-48.9L101.8,16.9z M87.3,80.3v-29h29v29H87.3z"/>
</g>
<g id="Layer_2_copy">
	<g>
		<polygon fill="#FBE64F" points="101.8,10 183.8,49.3 183.8,0 19.8,0 19.8,49.3 		"/>
		<polygon fill="#FBE64F" points="101.8,121.7 19.8,82.3 19.8,164 183.8,164 183.8,82.3 		"/>
	</g>
	<g>
		<path fill="#FFFFFF" d="M39.3,137.3l0.7-0.1c0.6-0.1,1.2-0.3,1.8-0.6c0.6-0.2,1.1-0.6,1.5-1c0.4-0.4,0.7-1,1-1.8
			c0.2-0.7,0.4-1.7,0.4-2.8c0-1.7-0.4-2.9-1.1-3.7c-0.8-0.8-1.8-1.2-3-1.2c-0.3,0-0.6,0-0.9,0c-0.3,0-0.7,0.1-1,0.1v22.7h-4.9v-25.1
			c0.5,0,1.1-0.1,1.7-0.1c0.6,0,1.2-0.1,1.9-0.1c0.6,0,1.3,0,1.9-0.1c0.6,0,1.3,0,1.9,0c1.5,0,2.8,0.2,3.8,0.5
			c1.1,0.3,2,0.8,2.7,1.4c0.7,0.6,1.2,1.4,1.6,2.3c0.3,0.9,0.5,1.9,0.5,3c0,1.2-0.2,2.3-0.6,3.3c-0.4,1-1,1.9-1.8,2.7
			s-1.8,1.4-3,1.8s-2.7,0.7-4.4,0.7h-0.2L39.3,137.3z"/>
		<path fill="#FFFFFF" d="M58.1,132.1v11.3c0,1,0.2,1.7,0.5,2.2c0.3,0.5,0.9,0.7,1.6,0.7c0.3,0,0.6,0,0.9-0.1s0.7-0.2,1-0.3
			s0.7-0.3,1-0.5c0.3-0.2,0.6-0.4,0.9-0.6v-12.8h4.8v16.8h-4.3l-0.4-2h-0.1c-0.3,0.2-0.7,0.5-1.2,0.7c-0.5,0.3-1,0.5-1.5,0.8
			c-0.5,0.2-1.1,0.5-1.7,0.6c-0.6,0.2-1.2,0.2-1.7,0.2c-0.6,0-1.2-0.1-1.8-0.3c-0.6-0.2-1-0.5-1.5-0.9c-0.4-0.4-0.8-0.9-1-1.6
			s-0.4-1.4-0.4-2.2v-12.3H58.1z"/>
		<path fill="#FFFFFF" d="M85,148.9v-11.3c0-1-0.2-1.7-0.5-2.2c-0.3-0.5-0.9-0.7-1.6-0.7c-0.3,0-0.6,0-0.9,0.1
			c-0.3,0.1-0.7,0.2-1,0.3c-0.3,0.1-0.7,0.3-1,0.5c-0.3,0.2-0.6,0.4-0.9,0.6v12.8h-4.8v-16.8h4.3l0.4,2H79c0.3-0.2,0.7-0.5,1.2-0.7
			c0.5-0.3,1-0.5,1.5-0.8c0.5-0.2,1.1-0.4,1.7-0.6c0.6-0.2,1.2-0.2,1.7-0.2c0.6,0,1.2,0.1,1.8,0.3c0.6,0.2,1,0.5,1.5,0.9
			c0.4,0.4,0.8,0.9,1,1.5c0.2,0.6,0.4,1.3,0.4,2.2v12.2H85z"/>
		<path fill="#FFFFFF" d="M95.2,134.4l-1.8-0.6v-1l5.2-3.7h1.3l0.1,3h5.1l-0.2,1.9c-0.4,0.1-0.9,0.1-1.4,0.2
			c-0.6,0.1-1.1,0.1-1.6,0.1c-0.6,0.1-1.2,0.1-1.9,0.2v9.5c0,0.6,0.1,1.1,0.3,1.5s0.7,0.6,1.4,0.6c0.2,0,0.4,0,0.7,0
			c0.3,0,0.6,0,1-0.1c0.3,0,0.7-0.1,1-0.1c0.3,0,0.6-0.1,0.8-0.1v1.4c-0.4,0.3-0.9,0.5-1.4,0.8c-0.5,0.3-1.1,0.5-1.7,0.7
			c-0.6,0.2-1.2,0.4-1.8,0.5c-0.6,0.1-1.2,0.2-1.7,0.2c-0.4,0-0.8,0-1.2-0.1c-0.4-0.1-0.8-0.2-1.1-0.5c-0.3-0.2-0.6-0.6-0.8-1
			c-0.2-0.4-0.3-1-0.3-1.7V134.4z"/>
		<path fill="#FFFFFF" d="M131.6,136.3c0,2-0.3,3.8-0.8,5.4c-0.5,1.6-1.3,3-2.3,4.1c-1,1.1-2.3,2-3.8,2.6c-1.5,0.6-3.3,0.9-5.3,0.9
			c-2.1,0-3.8-0.3-5.3-0.9s-2.7-1.5-3.6-2.6c-0.9-1.1-1.6-2.5-2.1-4.1c-0.4-1.6-0.7-3.4-0.7-5.4s0.2-3.7,0.7-5.3
			c0.5-1.6,1.2-2.9,2.1-4c1-1.1,2.2-2,3.7-2.6c1.5-0.6,3.2-0.9,5.3-0.9s3.8,0.3,5.3,0.9c1.5,0.6,2.8,1.4,3.8,2.6
			c1,1.1,1.8,2.5,2.3,4C131.4,132.5,131.6,134.3,131.6,136.3z M126.5,136.3c0-1.5-0.1-2.9-0.4-4.1c-0.3-1.2-0.7-2.3-1.2-3.1
			c-0.6-0.8-1.3-1.5-2.2-1.9c-0.9-0.4-1.9-0.7-3.1-0.7c-1.1,0-2,0.1-2.9,0.3c-0.9,0.2-1.6,0.6-2.2,1c-0.5,0.4-0.9,1.3-1.2,2.8
			c-0.2,1.4-0.4,3.3-0.4,5.8c0,1.5,0.1,2.9,0.3,4.1c0.2,1.2,0.6,2.3,1.1,3.2c0.5,0.9,1.2,1.6,2,2.1c0.8,0.5,1.9,0.7,3.2,0.7
			c1.3,0,2.4-0.1,3.2-0.4c0.8-0.2,1.5-0.6,2.1-1c0.3-0.2,0.5-0.5,0.7-1.1c0.2-0.5,0.4-1.2,0.5-2c0.1-0.8,0.2-1.7,0.3-2.7
			C126.5,138.3,126.5,137.3,126.5,136.3z"/>
		<path fill="#FFFFFF" d="M143.7,149.3c-2.7,0-4.8-0.7-6.3-2.2c-1.4-1.5-2.2-3.7-2.2-6.5c0-1.3,0.2-2.6,0.5-3.7
			c0.4-1.1,0.9-2,1.6-2.8c0.7-0.8,1.6-1.3,2.7-1.8c1.1-0.4,2.3-0.6,3.7-0.6c2.8,0,4.9,0.8,6.3,2.3c1.4,1.5,2.1,3.7,2.1,6.5
			c0,1.4-0.2,2.6-0.5,3.7c-0.4,1.1-0.9,2-1.6,2.8c-0.7,0.8-1.6,1.3-2.7,1.8C146.3,149.1,145.1,149.3,143.7,149.3z M140.3,140.5
			c0,2.2,0.3,3.8,0.8,4.9c0.5,1,1.4,1.6,2.7,1.6c0.5,0,0.9,0,1.3-0.1c0.4-0.1,0.8-0.2,1-0.4c0.2-0.1,0.3-0.3,0.5-0.7
			s0.3-0.8,0.4-1.3c0.1-0.5,0.2-1.1,0.2-1.8c0-0.7,0.1-1.4,0.1-2.1c0-2.2-0.3-3.8-0.8-4.8c-0.5-1.1-1.4-1.6-2.6-1.6
			c-0.5,0-0.9,0-1.3,0.1c-0.4,0.1-0.8,0.2-1.1,0.4c-0.2,0.1-0.3,0.3-0.5,0.7c-0.1,0.3-0.2,0.8-0.3,1.3c-0.1,0.5-0.1,1.1-0.2,1.8
			C140.3,139.1,140.3,139.8,140.3,140.5z"/>
		<path fill="#FFFFFF" d="M161,160.7c-1.1,0-2.1-0.1-2.8-0.3c-0.8-0.2-1.4-0.5-1.9-0.8c-0.5-0.3-0.8-0.7-1-1.2
			c-0.2-0.4-0.3-0.9-0.3-1.4c0-0.9,0.3-1.6,0.9-2.2c0.6-0.6,1.3-1.1,2.3-1.7l1.1,0.3c-0.1,0.4-0.2,0.7-0.2,1c0,0.3-0.1,0.6-0.1,1
			c0,0.8,0.3,1.4,0.8,1.8c0.5,0.5,1.3,0.7,2.3,0.7c0.5,0,0.9,0,1.4-0.1s0.9-0.1,1.4-0.2c0.4-0.1,0.8-0.2,1.2-0.3
			c0.4-0.1,0.7-0.3,0.9-0.4c0.4-0.2,0.6-0.5,0.7-1c0.1-0.4,0.2-1,0.2-1.6c0-1.2-1.3-1.9-3.8-1.9l-2.7,0c-1.9,0-3.3-0.3-4.1-0.8
			c-0.9-0.5-1.3-1.5-1.3-2.7c0-0.4,0.1-0.8,0.3-1.3c0.2-0.4,0.4-0.8,0.7-1.2c0.3-0.4,0.6-0.7,0.9-1.1c0.3-0.3,0.7-0.6,0.9-0.9
			c-0.5-0.2-0.9-0.5-1.4-0.9c-0.4-0.4-0.8-0.8-1.1-1.3s-0.6-1-0.8-1.7c-0.2-0.6-0.3-1.3-0.3-2c0-1.1,0.2-2,0.6-2.9
			c0.4-0.8,0.9-1.5,1.5-2.1c0.7-0.6,1.4-1,2.3-1.3c0.9-0.3,1.9-0.5,2.9-0.5c0.9,0,1.6,0,2.3,0.1c0.7,0.1,1.3,0.2,2,0.4
			c0.9,0,1.8-0.1,2.7-0.2c1-0.1,1.8-0.2,2.6-0.4l-0.4,2.2c-0.3,0.1-0.8,0.2-1.4,0.3c-0.6,0.1-1.1,0.1-1.5,0.1
			c0.2,0.4,0.4,0.9,0.7,1.5c0.2,0.7,0.4,1.5,0.4,2.6c0,1.1-0.2,2-0.5,2.8c-0.4,0.8-0.9,1.5-1.5,2.1c-0.6,0.6-1.4,1-2.3,1.3
			c-0.9,0.3-1.9,0.4-2.9,0.4c-0.2,0-0.4,0-0.6,0c-0.2,0-0.4,0-0.7,0c-0.2,0-0.4,0-0.6-0.1s-0.4-0.1-0.5-0.1
			c-0.1,0.2-0.2,0.5-0.4,0.8c-0.1,0.3-0.2,0.7-0.2,1c0,0.4,0.2,0.7,0.6,0.8c0.4,0.1,1.1,0.2,2,0.2h3.8c1.1,0,2.1,0.1,2.9,0.3
			c0.8,0.2,1.4,0.5,1.9,0.9c0.5,0.4,0.8,0.9,1,1.5c0.2,0.6,0.3,1.3,0.3,2.1c0,1-0.3,2-0.8,3c-0.6,1-1.3,1.9-2.3,2.7
			c-1,0.8-2.2,1.4-3.6,1.9S162.6,160.7,161,160.7z M162.6,142.8c0.4,0,0.8,0,1.1-0.1c0.3-0.1,0.6-0.2,0.8-0.3
			c0.2-0.1,0.4-0.6,0.6-1.3c0.2-0.7,0.2-1.6,0.2-2.7c0-0.6-0.1-1.2-0.2-1.7c-0.1-0.5-0.3-1-0.5-1.4c-0.2-0.4-0.5-0.7-0.9-0.9
			c-0.3-0.2-0.7-0.3-1.2-0.3c-0.4,0-0.7,0-1,0.1c-0.3,0.1-0.5,0.2-0.8,0.3c-0.3,0.2-0.5,0.6-0.6,1.3c-0.1,0.7-0.2,1.6-0.2,2.7
			c0,0.6,0.1,1.1,0.2,1.7c0.1,0.5,0.3,1,0.5,1.4c0.2,0.4,0.5,0.7,0.8,0.9C161.8,142.7,162.2,142.8,162.6,142.8z"/>
	</g>
</g>
</svg>
